<?xml version="1.0" standalone="no"?>
<!DOCTYPE svg PUBLIC "-//W3C//DTD SVG 20010904//EN"
 "http://www.w3.org/TR/2001/REC-SVG-20010904/DTD/svg10.dtd">
<svg version="1.0" xmlns="http://www.w3.org/2000/svg"
 width="418.000000pt" height="418.000000pt" viewBox="0 0 418.000000 418.000000"
 preserveAspectRatio="xMidYMid meet">
<metadata>
Created by potrace 1.11, written by Peter Selinger 2001-2013
</metadata>
<g transform="translate(0.000000,418.000000) scale(0.100000,-0.100000)"
fill="#000000" stroke="none">
<path d="M2030 4138 c-64 -11 -104 -33 -153 -82 -70 -72 -96 -186 -62 -281 8
-21 13 -40 12 -41 -1 0 -24 -9 -52 -19 -111 -41 -201 -119 -245 -212 -16 -35
-25 -43 -38 -38 -120 52 -245 53 -357 5 l-45 -19 -21 49 c-54 125 -211 193
-346 150 -159 -51 -235 -239 -157 -391 24 -49 94 -116 129 -125 19 -5 19 -8
-17 -83 -62 -127 -63 -252 -3 -367 l22 -41 -51 -23 c-92 -42 -178 -149 -220
-274 -4 -12 -11 -16 -24 -11 -76 32 -174 30 -241 -5 -165 -84 -206 -294 -85
-429 73 -81 174 -111 284 -85 70 17 70 17 70 -1 0 -31 61 -142 103 -186 46
-49 114 -93 160 -104 23 -6 26 -11 21 -29 -27 -81 -31 -110 -30 -176 2 -69 14
-109 62 -215 2 -6 -12 -18 -33 -28 -171 -76 -215 -302 -85 -435 58 -59 108
-83 186 -89 113 -9 234 61 272 157 l16 39 36 -18 c118 -59 253 -68 364 -26 12
5 19 -3 27 -28 21 -61 104 -142 193 -187 44 -22 87 -40 95 -40 10 0 13 -5 8
-17 -49 -119 -22 -246 69 -326 182 -160 473 -27 467 214 0 27 -8 65 -16 85 -8
21 -14 38 -13 39 2 1 26 10 53 19 108 39 208 125 246 211 l19 43 63 -20 c85
-27 169 -24 265 8 42 14 82 30 88 35 8 7 18 -4 34 -36 106 -219 445 -196 519
36 41 128 -16 268 -134 330 -31 16 -44 29 -41 39 3 8 17 46 31 85 33 87 35
186 6 269 l-19 55 29 6 c47 11 142 80 179 132 42 57 51 75 75 136 l17 46 31
-15 c51 -27 152 -23 220 8 68 32 99 64 135 138 63 133 7 291 -129 360 -54 28
-156 35 -213 15 -41 -14 -56 -12 -56 8 0 33 -65 143 -112 190 -50 49 -123 97
-151 97 -7 0 -19 4 -27 10 -12 8 -12 11 2 27 23 26 49 109 52 171 4 73 -9 135
-44 209 l-29 63 37 19 c126 66 182 209 136 345 -10 28 -35 66 -63 95 -132 135
-360 103 -447 -63 l-28 -54 -36 15 c-67 30 -155 49 -210 47 -57 -3 -139 -21
-154 -35 -19 -17 -34 -9 -51 28 -38 79 -137 161 -240 199 -27 9 -51 18 -53 19
-1 1 5 18 13 38 8 20 15 60 15 89 0 177 -156 308 -330 276z m230 -568 c145
-33 227 -114 234 -234 6 -85 32 -116 97 -116 24 0 41 9 68 38 69 73 97 86 181
87 63 0 84 -5 130 -29 171 -89 327 -258 360 -388 20 -77 7 -125 -52 -206 -34
-45 -40 -61 -40 -105 -2 -97 20 -120 123 -130 168 -16 249 -150 247 -409 -1
-130 -11 -183 -49 -264 -41 -88 -101 -128 -207 -140 -133 -15 -171 -86 -96
-176 82 -96 91 -176 33 -292 -58 -117 -214 -267 -334 -322 -108 -50 -185 -39
-289 40 -49 37 -90 46 -126 26 -28 -15 -41 -45 -45 -101 -5 -58 -33 -127 -66
-159 -32 -30 -133 -76 -189 -85 -142 -23 -329 -9 -426 34 -91 40 -153 127
-139 198 10 53 -2 87 -36 107 -46 27 -105 17 -137 -25 -97 -123 -301 -69 -491
130 -168 176 -195 325 -82 454 37 42 45 81 23 118 -16 29 -48 41 -152 58 -82
13 -135 51 -173 122 -89 165 -74 486 30 609 35 42 116 80 171 80 48 0 96 21
106 45 9 25 7 83 -3 89 -12 8 -84 113 -106 156 -22 43 -22 123 0 175 70 163
297 348 459 373 69 11 133 -11 196 -68 51 -45 82 -57 118 -44 38 14 61 53 68
114 15 140 89 210 258 245 74 15 260 12 336 -5z"/>
</g>
</svg>
