<?xml version="1.0" standalone="no"?>
<!DOCTYPE svg PUBLIC "-//W3C//DTD SVG 20010904//EN"
 "http://www.w3.org/TR/2001/REC-SVG-20010904/DTD/svg10.dtd">
<svg version="1.0" xmlns="http://www.w3.org/2000/svg"
 width="980.000000pt" height="980.000000pt" viewBox="0 0 980.000000 980.000000"
 preserveAspectRatio="xMidYMid meet">
<metadata>
Created by potrace 1.11, written by Peter Selinger 2001-2013
</metadata>
<g transform="translate(0.000000,980.000000) scale(0.100000,-0.100000)"
fill="#000000" stroke="none">
<path d="M8350 9790 c-92 -16 -116 -19 -170 -25 -30 -3 -68 -8 -85 -11 -49 -9
-87 -14 -140 -19 -27 -3 -61 -8 -75 -11 -27 -6 -44 -8 -135 -19 -33 -3 -71 -9
-85 -11 -14 -3 -38 -7 -55 -9 -16 -1 -30 -4 -30 -5 0 -1 -20 -3 -45 -5 -25 -2
-58 -6 -75 -9 -16 -4 -50 -9 -75 -11 -49 -6 -91 -12 -130 -19 -14 -3 -47 -7
-75 -10 -27 -3 -61 -7 -75 -10 -14 -2 -47 -7 -73 -11 -27 -4 -56 -8 -65 -10
-10 -1 -42 -6 -72 -9 -30 -4 -66 -8 -80 -10 -27 -5 -81 -12 -220 -30 -14 -2
-43 -6 -65 -10 -22 -3 -60 -8 -85 -11 -25 -3 -52 -7 -60 -9 -8 -3 -42 -7 -75
-11 -66 -7 -117 -14 -155 -21 -14 -3 -45 -7 -70 -9 -25 -3 -58 -7 -75 -10 -16
-2 -47 -7 -67 -10 -21 -3 -54 -7 -73 -10 -19 -3 -51 -7 -70 -10 -19 -3 -52 -7
-72 -11 -68 -9 -127 -16 -155 -18 -16 0 -28 -4 -28 -7 0 -4 -14 -5 -30 -4 -17
1 -33 -1 -36 -6 -3 -5 -10 -7 -15 -3 -5 3 -33 1 -62 -5 -28 -6 -79 -13 -111
-17 -33 -3 -67 -8 -75 -9 -15 -3 -136 -18 -156 -20 -5 0 -34 12 -62 28 -29 15
-55 28 -58 27 -8 0 -23 4 -45 13 -38 14 -89 27 -135 34 -63 9 -547 7 -635 -2
-36 -4 -73 -7 -82 -8 -10 -1 -18 -4 -18 -7 0 -3 -8 -6 -17 -7 -28 -2 -53 -9
-123 -37 -36 -14 -85 -28 -110 -31 -25 -3 -67 -8 -95 -11 -27 -3 -53 -11 -57
-18 -6 -8 -8 -8 -8 0 0 11 -166 -14 -225 -33 -11 -3 -29 -7 -40 -8 -11 -1 -27
-5 -35 -8 -8 -3 -26 -8 -40 -10 -118 -24 -411 -121 -550 -184 -180 -81 -337
-166 -477 -260 -97 -65 -155 -105 -163 -113 -3 -3 -34 -30 -70 -60 -36 -30
-68 -59 -72 -65 -4 -5 -8 -7 -8 -3 0 16 -242 -235 -315 -327 -22 -27 -47 -58
-56 -68 -9 -10 -34 -43 -55 -75 -21 -31 -43 -60 -49 -64 -5 -4 -6 -8 -2 -8 4
0 -1 -10 -13 -22 -11 -12 -20 -27 -20 -33 0 -7 -9 -20 -20 -30 -11 -10 -20
-24 -20 -32 0 -7 -3 -13 -7 -13 -5 0 -13 -10 -19 -23 -6 -12 -40 -78 -75 -147
-65 -127 -96 -193 -144 -310 -15 -36 -45 -103 -66 -148 -22 -46 -39 -89 -39
-96 0 -7 -5 -17 -12 -24 -7 -7 -8 -12 -4 -12 5 0 3 -7 -4 -15 -7 -8 -10 -22
-6 -30 3 -8 1 -15 -4 -15 -5 0 -8 -53 -7 -125 2 -69 0 -125 -3 -125 -3 0 -21
-15 -41 -33 -20 -17 -48 -41 -63 -52 -27 -20 -44 -33 -85 -67 -12 -10 -25 -18
-29 -18 -4 0 -14 -9 -22 -20 -8 -11 -20 -20 -26 -20 -7 0 -14 -3 -16 -7 -2 -5
-16 -17 -33 -29 -119 -82 -140 -98 -143 -106 -2 -4 -8 -8 -13 -8 -10 0 -72
-54 -115 -100 -121 -128 -181 -283 -171 -441 3 -46 7 -91 9 -99 16 -60 36
-102 69 -150 21 -30 51 -73 66 -95 43 -62 64 -113 65 -160 0 -31 -12 -147 -21
-190 -10 -49 -8 -226 3 -275 14 -68 34 -215 30 -222 -3 -4 -2 -8 3 -8 9 0 10
-8 17 -265 6 -221 9 -248 43 -335 37 -92 82 -159 161 -237 77 -78 99 -96 141
-117 16 -9 31 -19 33 -24 8 -20 273 -135 333 -145 11 -1 26 -6 33 -10 6 -5 12
-6 12 -3 0 3 11 1 24 -4 13 -5 41 -11 63 -15 21 -3 50 -8 63 -11 60 -13 157
-19 325 -18 164 0 254 10 385 39 14 3 36 8 50 11 14 3 43 10 64 15 22 6 51 12
65 14 14 2 26 4 26 5 0 1 9 3 20 5 11 3 60 13 110 24 49 11 90 19 92 18 1 -2
-9 -15 -22 -30 -14 -14 -25 -31 -25 -37 0 -5 -4 -10 -9 -10 -4 0 -30 -28 -57
-62 -27 -35 -56 -72 -66 -83 -9 -11 -62 -76 -118 -145 -56 -69 -109 -134 -118
-145 -9 -11 -37 -45 -62 -75 -25 -30 -48 -56 -52 -58 -5 -2 -8 -8 -8 -13 0 -6
-10 -21 -22 -34 -13 -13 -35 -39 -50 -57 -64 -79 -232 -286 -261 -322 -34 -42
-218 -267 -245 -301 -10 -11 -35 -42 -57 -70 -22 -27 -47 -58 -55 -68 -8 -10
-23 -28 -33 -40 -10 -12 -31 -37 -45 -56 -15 -18 -34 -41 -42 -51 -8 -10 -28
-35 -45 -56 -16 -21 -37 -45 -45 -54 -8 -8 -39 -46 -69 -84 -29 -38 -62 -78
-72 -90 -21 -25 -164 -200 -221 -271 -79 -98 -103 -128 -113 -139 -5 -6 -28
-34 -50 -61 -21 -28 -42 -52 -45 -55 -3 -3 -30 -36 -60 -75 -30 -38 -57 -72
-61 -75 -4 -3 -24 -27 -45 -55 -21 -27 -42 -55 -48 -61 -6 -6 -22 -25 -36 -43
-14 -18 -36 -44 -49 -59 -79 -87 -123 -193 -126 -304 -5 -156 74 -293 233
-407 23 -17 42 -28 42 -24 0 5 4 3 8 -2 14 -21 132 -66 219 -84 108 -23 299
-22 383 3 30 9 62 18 71 20 56 14 219 99 227 118 2 4 8 8 12 8 5 0 54 27 109
60 55 33 104 60 110 60 5 0 11 4 13 8 3 8 41 31 128 80 25 14 56 33 69 44 13
10 30 18 37 18 8 0 14 4 14 9 0 5 6 11 13 13 6 2 49 26 95 53 46 28 98 59 117
70 61 36 280 166 299 178 11 7 45 28 75 47 31 19 58 35 61 35 3 0 17 8 33 18
57 36 72 44 81 45 5 0 12 4 15 9 5 7 217 137 276 169 43 23 131 78 148 92 9 8
17 11 17 7 0 -4 8 -1 18 7 9 8 41 28 69 44 29 16 53 32 53 37 0 4 9 7 20 7 11
0 20 4 20 8 0 5 19 18 42 31 24 12 86 48 138 81 52 32 119 71 148 86 28 16 52
32 52 36 0 4 4 8 10 8 9 0 327 185 420 245 89 56 343 205 351 205 5 0 9 5 9
10 0 6 4 10 10 10 10 0 76 38 159 91 24 16 57 34 72 41 16 7 29 16 29 20 0 5
4 8 9 8 4 0 79 43 166 95 87 52 166 97 176 100 11 4 19 11 19 16 0 5 7 9 15 9
8 0 15 5 15 10 0 6 4 10 10 10 5 0 43 20 83 45 41 25 80 45 86 45 6 0 11 3 11
8 0 4 21 19 47 32 26 14 53 30 60 37 7 6 26 17 43 25 16 7 30 16 30 20 0 5 4
8 9 8 9 0 318 182 338 199 7 6 15 11 18 11 5 0 171 97 205 120 30 20 176 105
205 120 17 8 32 18 35 21 7 10 71 48 103 61 15 7 27 16 27 20 0 4 4 8 8 8 9 0
219 123 239 140 7 5 14 10 17 10 3 0 45 25 93 55 48 30 98 59 110 65 33 14
153 95 189 127 95 85 154 204 159 320 4 133 -41 240 -145 342 -47 47 -64 69
-56 76 6 6 31 24 56 40 25 17 47 33 48 38 2 4 10 7 18 7 8 0 14 5 14 10 0 6 7
10 15 10 8 0 15 4 15 8 0 5 10 14 23 19 12 6 31 18 42 27 11 9 65 48 120 86
55 38 105 73 111 79 7 5 15 7 18 4 3 -4 6 -2 6 4 0 8 48 43 148 108 9 6 25 18
36 27 11 10 25 18 32 18 7 0 14 4 16 8 2 5 32 29 68 53 36 24 67 46 70 49 3 3
32 23 65 46 75 51 208 142 305 211 41 29 82 57 90 63 8 6 85 58 170 118 86 59
172 118 193 132 20 14 37 28 37 33 0 4 4 7 9 7 13 0 185 117 225 153 11 9 24
17 28 17 5 0 14 5 21 10 41 35 134 100 144 100 6 0 13 4 15 8 2 5 55 44 118
87 63 44 117 82 120 85 3 3 39 28 80 55 91 61 112 77 170 135 56 56 79 90 110
160 34 77 35 232 3 303 -12 26 -19 47 -15 47 4 0 2 4 -3 8 -6 4 -20 21 -30 38
-72 114 -242 229 -382 259 -16 4 -37 8 -48 11 -135 28 -248 25 -455 -13 -19
-4 -44 -8 -55 -9 -11 -1 -20 -3 -20 -4 0 -1 -11 -3 -25 -5 -14 -1 -38 -5 -55
-9 -58 -11 -70 -14 -115 -21 -25 -4 -54 -9 -65 -12 -11 -2 -36 -6 -55 -9 -19
-2 -42 -7 -50 -9 -8 -3 -33 -7 -55 -10 -45 -7 -65 -10 -150 -25 -33 -6 -71
-13 -85 -15 -69 -12 -148 -27 -170 -31 -14 -3 -36 -7 -50 -9 -44 -6 -134 -21
-205 -35 -27 -5 -63 -12 -80 -15 -16 -3 -40 -7 -51 -9 -12 -2 -39 -7 -60 -10
-38 -6 -61 -10 -114 -22 -14 -3 -36 -6 -50 -8 -26 -3 -137 -22 -180 -31 -13
-2 -40 -7 -60 -10 -20 -3 -47 -8 -60 -11 -14 -3 -40 -7 -58 -9 -18 -2 -43 -7
-55 -11 -16 -5 -9 7 24 40 26 25 46 46 45 46 -1 0 56 60 128 134 72 74 203
209 291 301 88 92 213 221 278 288 64 66 117 121 117 121 0 1 53 56 118 122
64 67 207 215 317 329 110 114 236 245 280 290 252 260 615 638 644 670 10 11
31 43 48 71 46 77 55 110 57 219 1 44 -1 85 -6 91 -4 6 -9 19 -11 30 -5 29
-47 111 -63 125 -8 6 -14 15 -14 20 0 15 -104 111 -151 138 -31 19 -121 64
-134 67 -5 2 -44 13 -85 24 -81 23 -284 34 -370 20z"/>
</g>
</svg>
